<?xml version="1.0" encoding="utf-8"?>
<!-- Generator: Adobe Illustrator 26.3.1, SVG Export Plug-In . SVG Version: 6.00 Build 0)  -->
<svg version="1.1" xmlns="http://www.w3.org/2000/svg" xmlns:xlink="http://www.w3.org/1999/xlink" x="0px" y="0px"
	 viewBox="0 0 203.05 68.02" style="enable-background:new 0 0 203.05 68.02;" xml:space="preserve">
<style type="text/css">
	.st0{fill:#847F80;}
	.st1{fill:#FFFFFF;}
	.st2{fill:#231F20;stroke:#231F20;stroke-width:2.4447;stroke-miterlimit:10;}
	.st3{fill:#1758FF;}
	.st4{fill:#BB2323;}
	.st5{fill:#231F20;}
	.st6{fill:#231F20;stroke:#231F20;stroke-width:2.4442;stroke-miterlimit:10;}
	.st7{fill:none;stroke:#000000;stroke-width:3.6255;stroke-miterlimit:10;}
	.st8{fill:#FFFFFF;stroke:#FFFFFF;stroke-width:2.1342;stroke-miterlimit:10;}
	.st9{stroke:#000000;stroke-width:2.9483;stroke-miterlimit:10;}
	.st10{fill:#0074FF;}
	.st11{fill:#FF1225;}
	.st12{fill:none;stroke:#E0494B;stroke-width:1.9899;stroke-miterlimit:10;}
	.st13{fill:#E0494B;stroke:#E0494B;stroke-width:2.984;stroke-miterlimit:10;}
	.st14{fill:#E0494B;}
	.st15{fill:none;stroke:#000000;stroke-width:2;stroke-miterlimit:10;}
	.st16{fill:#231F20;stroke:#231F20;stroke-width:2.4042;stroke-miterlimit:10;}
	.st17{fill:#231F20;stroke:#231F20;stroke-width:2.4787;stroke-miterlimit:10;}
	.st18{fill:none;stroke:#000000;stroke-width:2.5232;stroke-miterlimit:10;}
	.st19{fill:#231F20;stroke:#231F20;stroke-width:2.2775;stroke-miterlimit:10;}
	.st20{fill:none;stroke:#231F20;stroke-width:1.4414;stroke-miterlimit:10;}
	.st21{fill:none;stroke:#1758FF;stroke-width:1.051;stroke-miterlimit:10;}
	.st22{fill:none;stroke:#E0494B;stroke-width:1.6213;stroke-miterlimit:10;}
	.st23{fill:none;stroke:#1758FF;stroke-width:1.4013;stroke-miterlimit:10;}
	.st24{fill:none;stroke:#BB2323;stroke-width:1.4013;stroke-miterlimit:10;}
	.st25{fill:none;stroke:#231F20;stroke-width:1.4013;stroke-miterlimit:10;}
	.st26{stroke:#000000;stroke-width:0.9776;stroke-miterlimit:10;}
</style>
<g id="Layer_1">
</g>
<g id="Layer_3">
</g>
<g id="Layer_2">
	<g>
		<path class="st15" d="M195.2,66.51h-187c-3.52,0-6.38-2.86-6.38-6.38V7.94c0-3.52,2.86-6.38,6.38-6.38h187
			c3.52,0,6.38,2.86,6.38,6.38v52.19C201.58,63.65,198.72,66.51,195.2,66.51z"/>
		<g>
			<g>
				<path class="st9" d="M83.52,36.13 M79.65,41.23 M83.52,36.13v11.29c0,1.39,1.66,2.09,4.98,2.09h10.94
					c3.22,0,4.83-0.68,4.83-2.03V32.69c0-1.11,0.66-1.66,1.98-1.66c1.26,0,1.89,0.55,1.89,1.66v14.72c0,3.52-3.13,5.29-9.37,5.29
					h-9.65c-6.31,0-9.47-1.76-9.47-5.29v-6L83.52,36.13z"/>
				<path class="st9" d="M119.98,50.59c0,1.55-0.64,2.33-1.91,2.33c-1.31,0-1.97-0.78-1.97-2.33V17.56c0-1.52,0.63-2.29,1.91-2.29
					c1.31,0,1.97,0.76,1.97,2.29V50.59z"/>
				<path class="st9" d="M152.77,47.94c0,3.18-2.34,4.76-7.01,4.76h-17.27c-1.11,0-1.66-0.52-1.66-1.57c0-1.09,0.55-1.63,1.66-1.63
					h17.98c1.54,0,2.31-0.61,2.31-1.84v-2.52c0-1.15-0.92-1.72-2.77-1.72h-11.4c-5.21,0-7.81-1.51-7.81-4.52v-3.14
					c0.14-6.58,12.22-4.64,12.22-4.64c1.17,0,1.75,0.53,1.75,1.6c0,1.07-0.58,1.6-1.75,1.6c0,0-8.66-1.38-8.41,1.78v2.46
					c-0.02,1.18,1.26,1.65,3.32,1.66h11.59c4.84,0,7.25,1.55,7.25,4.64V47.94z"/>
				<path class="st9" d="M167.42,42.32c0-1.13,0.53-1.69,1.6-1.69h14v-3.2c0-1.91-1.48-2.86-4.45-2.86h-10.4
					c-3.99,0-5.99,1.01-5.99,3.04v8.97c0,1.95,2,2.92,5.99,2.92h16.97c1.09,0,1.63,0.52,1.63,1.57c0,1.09-0.54,1.63-1.63,1.63
					h-15.95c-7.25,0-10.88-2.2-10.88-6.61v-8.18c0-4.36,3.58-6.55,10.73-6.55h8.76c5.98,0,8.97,1.89,8.97,5.66v5.13
					c0,1.21-0.56,1.81-1.69,1.81h-16.06C167.95,43.97,167.42,43.42,167.42,42.32z"/>
			</g>
			<g>
				<path class="st10" d="M35.44,47.88v4.77c0,0.82-0.66,1.48-1.48,1.48H21.93c-0.82,0-1.48-0.66-1.48-1.48V15.42
					c0-0.82,0.66-1.48,1.48-1.48h68.4c1.2,0,1.9,1.36,1.2,2.34L70.26,45.79c-0.28,0.38-0.72,0.61-1.2,0.61H36.92
					C36.11,46.41,35.44,47.07,35.44,47.88z M64.28,35.34l6.08-8.71c0.89-1.47,0.03-3.38-2.13-3.38H38.05
					c-1.46,0-2.65,0.95-2.65,2.13l-0.01,8.68c0,1.17,1.18,2.13,2.65,2.13l24.11,0.03C62.99,36.21,63.79,35.89,64.28,35.34z"/>
			</g>
			<path class="st11" d="M31.21,47.88v4.77c0,0.82-0.66,1.48-1.48,1.48H17.69c-0.82,0-1.48-0.66-1.48-1.48V15.42
				c0-0.82,0.66-1.48,1.48-1.48h68.4c1.2,0,1.9,1.36,1.2,2.34L66.03,45.79c-0.28,0.38-0.72,0.61-1.2,0.61H32.68
				C31.87,46.41,31.21,47.07,31.21,47.88z M60.05,35.34l6.08-8.71c0.89-1.47,0.03-3.38-2.13-3.38H33.81c-1.46,0-2.65,0.95-2.65,2.13
				l-0.01,8.68c0,1.17,1.18,2.13,2.65,2.13l24.11,0.03C58.76,36.21,59.55,35.89,60.05,35.34z"/>
			<rect x="78.75" y="25.39" class="st10" width="6.25" height="6.25"/>
			<rect x="91.81" y="25.39" class="st10" width="6.25" height="6.25"/>
			<rect x="85.55" y="15.27" class="st10" width="6.25" height="6.25"/>
			<path d="M33.25,47.88v4.77c0,0.82-0.66,1.48-1.48,1.48H19.73c-0.82,0-1.48-0.66-1.48-1.48V15.42c0-0.82,0.66-1.48,1.48-1.48h68.4
				c1.2,0,1.9,1.36,1.2,2.34L68.07,45.79c-0.28,0.38-0.72,0.61-1.2,0.61H34.72C33.91,46.41,33.25,47.07,33.25,47.88z M62.09,35.34
				l6.08-8.71c0.89-1.47,0.03-3.38-2.13-3.38H35.85c-1.46,0-2.65,0.95-2.65,2.13l-0.01,8.68c0,1.17,1.18,2.13,2.65,2.13l24.11,0.03
				C60.8,36.21,61.59,35.89,62.09,35.34z"/>
		</g>
	</g>
</g>
</svg>
